<?xml version="1.0" encoding="UTF-8"?>
<!DOCTYPE svg PUBLIC "-//W3C//DTD SVG 1.1//EN" "http://www.w3.org/Graphics/SVG/1.1/DTD/svg11.dtd">
<svg xmlns="http://www.w3.org/2000/svg" version="1.1" width="1061px" height="700px" style="shape-rendering:geometricPrecision; text-rendering:geometricPrecision; image-rendering:optimizeQuality; fill-rule:evenodd; clip-rule:evenodd" xmlns:xlink="http://www.w3.org/1999/xlink">
<g><path style="opacity:0.928" fill="#beb9b5" d="M 139.5,284.5 C 138.189,290.792 136.023,296.792 133,302.5C 129.664,305.169 125.831,306.669 121.5,307C 107.478,308.474 94.1446,306.14 81.5,300C 67.1398,289.619 65.8064,277.786 77.5,264.5C 80.4835,261.674 83.8168,259.341 87.5,257.5C 86.6965,241.733 91.6965,228.233 102.5,217C 103.966,216.365 105.3,215.531 106.5,214.5C 115.87,216.101 123.704,220.434 130,227.5C 133.906,234.645 134.072,241.978 130.5,249.5C 122.853,239.166 112.853,232.499 100.5,229.5C 97.3302,244.493 102.997,254.493 117.5,259.5C 116.077,264.387 113.244,268.054 109,270.5C 102.532,268.336 96.3658,265.836 90.5,263C 82.8483,273.027 84.515,281.027 95.5,287C 104.861,290.616 114.528,291.949 124.5,291C 129.521,288.821 134.521,286.654 139.5,284.5 Z"/></g>
<g><path style="opacity:0.935" fill="#beb9b5" d="M 157.5,221.5 C 158.873,221.343 160.207,221.51 161.5,222C 160.318,236.596 159.318,251.262 158.5,266C 158.833,268.167 159.167,270.333 159.5,272.5C 161.833,274.333 164.167,276.167 166.5,278C 162.984,281.349 159.651,284.849 156.5,288.5C 150.962,287.129 147.129,283.796 145,278.5C 143.899,272.411 143.399,266.245 143.5,260C 143.817,248.159 144.317,236.326 145,224.5C 149.273,223.544 153.44,222.544 157.5,221.5 Z"/></g>
<g><path style="opacity:0.905" fill="#beb9b5" d="M 327.5,240.5 C 337.65,240.804 341.483,245.804 339,255.5C 333.807,260.471 328.807,260.138 324,254.5C 321.267,248.722 322.434,244.056 327.5,240.5 Z"/></g>
<g><path style="opacity:0.919" fill="#beb9b5" d="M 180.5,246.5 C 188.178,247.002 195.512,248.835 202.5,252C 203.701,252.903 204.535,254.069 205,255.5C 205.851,260.97 205.351,266.304 203.5,271.5C 198.371,273.626 193.038,274.96 187.5,275.5C 192.233,280.479 197.4,280.812 203,276.5C 202.705,282.896 199.538,287.396 193.5,290C 187.606,291.037 181.939,290.371 176.5,288C 173.769,285.374 171.936,282.207 171,278.5C 170.333,270.5 170.333,262.5 171,254.5C 174.358,251.969 177.524,249.302 180.5,246.5 Z M 185.5,257.5 C 191.55,259.26 193.717,263.26 192,269.5C 189.619,268.565 187.119,268.232 184.5,268.5C 185.114,264.865 185.448,261.198 185.5,257.5 Z"/></g>
<g><path style="opacity:0.928" fill="#beb9b5" d="M 267.5,248.5 C 269.062,250.372 270.062,252.705 270.5,255.5C 273.421,256.407 276.421,256.74 279.5,256.5C 279.167,259.833 278.833,263.167 278.5,266.5C 275.5,266.5 272.5,266.5 269.5,266.5C 269.334,271.179 269.501,275.845 270,280.5C 271.833,283.667 274.333,286.167 277.5,288C 274.904,292.392 271.737,296.225 268,299.5C 261.082,297.582 256.416,293.249 254,286.5C 253.611,279.825 253.778,273.159 254.5,266.5C 253.022,266.762 251.689,266.429 250.5,265.5C 251.747,262.671 253.247,260.005 255,257.5C 255.497,254.854 255.664,252.187 255.5,249.5C 259.702,249.817 263.702,249.483 267.5,248.5 Z"/></g>
<g><path style="opacity:0.925" fill="#beb9b5" d="M 220.5,250.5 C 227.117,250.19 233.45,251.357 239.5,254C 244.384,257.602 246.718,262.435 246.5,268.5C 241.516,269.275 236.516,269.942 231.5,270.5C 231.431,267.916 230.265,265.916 228,264.5C 223.344,275.082 226.511,281.749 237.5,284.5C 240.375,283.368 243.041,282.201 245.5,281C 240.283,294.596 230.95,298.263 217.5,292C 213.675,289.512 211.508,286.012 211,281.5C 210.333,273.833 210.333,266.167 211,258.5C 214.358,255.969 217.524,253.302 220.5,250.5 Z"/></g>
<g><path style="opacity:0.073" fill="#2a2a2a" d="M 476.5,251.5 C 476.897,250.475 477.563,250.308 478.5,251C 477.906,251.464 477.239,251.631 476.5,251.5 Z"/></g>
<g><path style="opacity:0.047" fill="#262626" d="M 495.5,251.5 C 496.573,252.251 496.74,253.251 496,254.5C 495.517,253.552 495.351,252.552 495.5,251.5 Z"/></g>
<g><path style="opacity:0.933" fill="#6d6d6d" d="M 462.5,255.5 C 457.636,255.086 452.969,255.086 448.5,255.5C 445.436,255.397 444.436,254.064 445.5,251.5C 451.151,253.379 456.818,254.712 462.5,255.5 Z"/></g>
<g><path style="opacity:0.067" fill="#2a2a2a" d="M 503.5,254.5 C 504.473,254.987 505.473,255.487 506.5,256C 504.843,256.725 503.843,256.225 503.5,254.5 Z"/></g>
<g><path style="opacity:0.923" fill="#beb9b5" d="M 284.5,257.5 C 289.395,258.879 294.395,259.879 299.5,260.5C 299.335,263.85 299.502,267.183 300,270.5C 301.609,259.297 307.442,256.463 317.5,262C 315.902,267.886 314.069,273.72 312,279.5C 307.436,272.668 303.77,273.001 301,280.5C 299.727,286.614 302.227,289.614 308.5,289.5C 307.167,293.833 305.833,298.167 304.5,302.5C 289.593,303.093 282.593,295.926 283.5,281C 284.244,273.183 284.577,265.35 284.5,257.5 Z"/></g>
<g><path style="opacity:1" fill="#c0c0c0" d="M 462.5,255.5 C 465.727,255.676 468.727,256.343 471.5,257.5C 471.5,257.833 471.5,258.167 471.5,258.5C 468.506,258.146 467.506,259.146 468.5,261.5C 466.901,261.768 465.568,261.434 464.5,260.5C 462.095,259.232 459.428,258.565 456.5,258.5C 453.458,258.267 450.792,257.267 448.5,255.5C 452.969,255.086 457.636,255.086 462.5,255.5 Z"/></g>
<g><path style="opacity:0.678" fill="#606060" d="M 456.5,258.5 C 459.428,258.565 462.095,259.232 464.5,260.5C 461.505,260.706 458.838,260.04 456.5,258.5 Z"/></g>
<g><path style="opacity:1" fill="#6e6e6e" d="M 471.5,258.5 C 471.5,258.167 471.5,257.833 471.5,257.5C 477.227,257.847 482.894,258.681 488.5,260C 489.416,260.278 490.082,260.778 490.5,261.5C 484.095,260.742 477.761,259.742 471.5,258.5 Z"/></g>
<g><path style="opacity:0.827" fill="#727272" d="M 492.5,261.5 C 499.007,262.434 505.507,263.434 512,264.5C 513.995,262.924 515.495,263.257 516.5,265.5C 508.12,265.625 500.12,264.291 492.5,261.5 Z"/></g>
<g><path style="opacity:0.467" fill="#707070" d="M 469.5,261.5 C 472.152,261.41 474.485,262.076 476.5,263.5C 473.772,263.829 471.438,263.163 469.5,261.5 Z"/></g>
<g><path style="opacity:0.913" fill="#beb9b5" d="M 338.5,263.5 C 340.35,277.136 341.35,291.136 341.5,305.5C 335.862,306.22 330.196,306.553 324.5,306.5C 324.5,296.5 324.5,286.5 324.5,276.5C 318.11,277.782 316.11,275.449 318.5,269.5C 325.539,268.369 332.205,266.369 338.5,263.5 Z"/></g>
<g><path style="opacity:0.387" fill="#3c3c3c" d="M 564.5,266.5 C 563.209,266.263 562.209,266.596 561.5,267.5C 543.861,265.139 526.194,261.639 508.5,257C 515.184,257.133 521.85,257.8 528.5,259C 540.558,261.834 552.558,264.334 564.5,266.5 Z"/></g>
<g><path style="opacity:0.925" fill="#beb9b5" d="M 359.5,265.5 C 366.117,265.19 372.45,266.357 378.5,269C 383.384,272.602 385.718,277.435 385.5,283.5C 380.516,284.275 375.516,284.942 370.5,285.5C 370.431,282.916 369.265,280.916 367,279.5C 362.344,290.082 365.511,296.749 376.5,299.5C 379.375,298.368 382.041,297.201 384.5,296C 379.283,309.596 369.95,313.263 356.5,307C 352.675,304.512 350.508,301.012 350,296.5C 349.333,288.833 349.333,281.167 350,273.5C 353.358,270.969 356.524,268.302 359.5,265.5 Z"/></g>
<g><path style="opacity:1" fill="#727272" d="M 476.5,263.5 C 479.713,263.19 482.713,263.523 485.5,264.5C 486.609,265.29 487.942,265.79 489.5,266C 482.508,266.5 475.508,266.666 468.5,266.5C 472.312,265.676 476.312,265.176 480.5,265C 478.942,264.79 477.609,264.29 476.5,263.5 Z"/></g>
<g><path style="opacity:1" fill="#aeaeae" d="M 485.5,264.5 C 489.622,264.697 493.622,265.53 497.5,267C 486.833,267.333 476.167,267.667 465.5,268C 463.257,269.136 460.924,269.97 458.5,270.5C 461.192,267.819 464.525,266.486 468.5,266.5C 475.508,266.666 482.508,266.5 489.5,266C 487.942,265.79 486.609,265.29 485.5,264.5 Z"/></g>
<g><path style="opacity:1" fill="#e5e5e5" d="M 471.5,258.5 C 477.761,259.742 484.095,260.742 490.5,261.5C 491.167,261.5 491.833,261.5 492.5,261.5C 500.12,264.291 508.12,265.625 516.5,265.5C 518.415,265.216 520.081,265.549 521.5,266.5C 521.611,267.117 521.944,267.617 522.5,268C 527.496,268.611 532.496,269.111 537.5,269.5C 544.597,271.462 551.93,272.796 559.5,273.5C 562.589,274.785 565.922,275.451 569.5,275.5C 572.939,275.253 576.272,275.586 579.5,276.5C 579.97,277.693 580.97,278.36 582.5,278.5C 585.799,279.21 589.133,279.543 592.5,279.5C 595.206,279.575 597.873,279.908 600.5,280.5C 602.148,281.927 604.148,282.76 606.5,283C 613.084,284.551 619.751,285.384 626.5,285.5C 630.911,287.13 635.578,288.13 640.5,288.5C 643.059,288.198 645.393,288.532 647.5,289.5C 650.909,290.903 654.575,291.57 658.5,291.5C 663.951,292.507 669.284,293.507 674.5,294.5C 678.942,295.99 683.609,296.99 688.5,297.5C 693.008,298.701 697.675,299.701 702.5,300.5C 707.477,301.327 712.477,301.994 717.5,302.5C 724.581,304.617 731.914,305.95 739.5,306.5C 739.833,306.5 740.167,306.5 740.5,306.5C 747.841,308.944 755.508,310.277 763.5,310.5C 764.167,310.5 764.833,310.5 765.5,310.5C 766.568,311.434 767.901,311.768 769.5,311.5C 769.833,311.5 770.167,311.5 770.5,311.5C 773.684,313.414 777.351,314.08 781.5,313.5C 781.833,313.5 782.167,313.5 782.5,313.5C 783.09,315.097 784.09,316.431 785.5,317.5C 783.257,318.474 780.924,318.808 778.5,318.5C 776.379,318.675 774.379,318.341 772.5,317.5C 772.389,316.883 772.056,316.383 771.5,316C 768.183,315.502 764.85,315.335 761.5,315.5C 761.167,315.5 760.833,315.5 760.5,315.5C 760.082,314.778 759.416,314.278 758.5,314C 755.854,313.503 753.187,313.336 750.5,313.5C 741.058,312.26 731.725,310.593 722.5,308.5C 720.095,307.232 717.428,306.565 714.5,306.5C 712.379,306.675 710.379,306.341 708.5,305.5C 704.058,304.01 699.391,303.01 694.5,302.5C 690.764,301.011 686.764,300.344 682.5,300.5C 678.709,300.341 675.042,299.675 671.5,298.5C 666.203,296.126 660.537,295.126 654.5,295.5C 653.5,295.5 652.5,295.5 651.5,295.5C 649.162,293.96 646.495,293.294 643.5,293.5C 641.097,293.552 638.764,293.219 636.5,292.5C 636.082,291.778 635.416,291.278 634.5,291C 631.518,290.502 628.518,290.335 625.5,290.5C 623.162,288.96 620.495,288.294 617.5,288.5C 615.097,288.552 612.764,288.219 610.5,287.5C 610.082,286.778 609.416,286.278 608.5,286C 598.208,284.062 587.874,282.562 577.5,281.5C 571.291,280.987 565.291,279.987 559.5,278.5C 554.17,276.333 548.503,275.333 542.5,275.5C 539.292,273.469 535.959,273.135 532.5,274.5C 532.167,275.5 531.5,276.167 530.5,276.5C 524.484,276.407 518.484,276.074 512.5,275.5C 509.833,275.167 507.167,274.833 504.5,274.5C 504.082,273.778 503.416,273.278 502.5,273C 499.518,272.502 496.518,272.335 493.5,272.5C 483.153,271.35 472.819,271.35 462.5,272.5C 460.517,272.843 459.183,272.176 458.5,270.5C 460.924,269.97 463.257,269.136 465.5,268C 476.167,267.667 486.833,267.333 497.5,267C 493.622,265.53 489.622,264.697 485.5,264.5C 482.713,263.523 479.713,263.19 476.5,263.5C 474.485,262.076 472.152,261.41 469.5,261.5C 469.167,261.5 468.833,261.5 468.5,261.5C 467.506,259.146 468.506,258.146 471.5,258.5 Z"/></g>
<g><path style="opacity:1" fill="#8f8f8f" d="M 521.5,266.5 C 526.177,266.835 530.844,267.335 535.5,268C 536.416,268.278 537.082,268.778 537.5,269.5C 532.496,269.111 527.496,268.611 522.5,268C 521.944,267.617 521.611,267.117 521.5,266.5 Z"/></g>
<g><path style="opacity:0.227" fill="#575757" d="M 537.5,269.5 C 544.171,270.223 550.838,271.056 557.5,272C 558.416,272.278 559.082,272.778 559.5,273.5C 551.93,272.796 544.597,271.462 537.5,269.5 Z"/></g>
<g><path style="opacity:1" fill="#4f4f4f" d="M 564.5,266.5 C 619.271,277.007 673.604,287.34 727.5,297.5C 724.075,297.367 723.742,298.033 726.5,299.5C 671.193,289.304 616.193,278.637 561.5,267.5C 562.209,266.596 563.209,266.263 564.5,266.5 Z"/></g>
<g><path style="opacity:1" fill="#7d7d7d" d="M 493.5,272.5 C 496.518,272.335 499.518,272.502 502.5,273C 503.416,273.278 504.082,273.778 504.5,274.5C 500.64,274.192 496.974,273.525 493.5,272.5 Z"/></g>
<g><path style="opacity:0.306" fill="#565656" d="M 559.5,273.5 C 563.122,273.322 566.456,273.989 569.5,275.5C 565.922,275.451 562.589,274.785 559.5,273.5 Z"/></g>
<g><path style="opacity:0.812" fill="#898989" d="M 532.5,274.5 C 535.959,273.135 539.292,273.469 542.5,275.5C 539.193,274.949 535.86,274.616 532.5,274.5 Z"/></g>
<g><path style="opacity:1" fill="#7c7c7c" d="M 542.5,275.5 C 548.503,275.333 554.17,276.333 559.5,278.5C 553.6,278.117 547.933,277.117 542.5,275.5 Z"/></g>
<g><path style="opacity:1" fill="#6c6c6c" d="M 512.5,275.5 C 518.484,276.074 524.484,276.407 530.5,276.5C 530.134,277.695 529.301,278.361 528,278.5C 522.65,277.777 517.483,276.777 512.5,275.5 Z"/></g>
<g><path style="opacity:0.106" fill="#595959" d="M 579.5,276.5 C 584.092,276.882 588.425,277.882 592.5,279.5C 589.133,279.543 585.799,279.21 582.5,278.5C 580.97,278.36 579.97,277.693 579.5,276.5 Z"/></g>
<g><path style="opacity:0.641" fill="#717171" d="M 626.5,285.5 C 619.751,285.384 613.084,284.551 606.5,283C 604.148,282.76 602.148,281.927 600.5,280.5C 600.435,280.062 600.601,279.728 601,279.5C 609.423,282.196 617.923,284.196 626.5,285.5 Z"/></g>
<g><path style="opacity:0.067" fill="#beb9b5" d="M 139.5,283.5 C 140.833,284.167 140.833,284.167 139.5,283.5 Z"/></g>
<g><path style="opacity:1" fill="#979797" d="M 458.5,270.5 C 459.183,272.176 460.517,272.843 462.5,272.5C 455.657,274.928 450.324,279.262 446.5,285.5C 444.797,286.66 444.131,285.993 444.5,283.5C 447.231,277.103 451.897,272.77 458.5,270.5 Z"/></g>
<g><path style="opacity:1" fill="#8b8b8b" d="M 577.5,281.5 C 587.874,282.562 598.208,284.062 608.5,286C 609.416,286.278 610.082,286.778 610.5,287.5C 599.24,286.236 588.24,284.236 577.5,281.5 Z"/></g>
<g><path style="opacity:0.345" fill="#555555" d="M 626.5,285.5 C 631.471,285.656 636.138,286.656 640.5,288.5C 635.578,288.13 630.911,287.13 626.5,285.5 Z"/></g>
<g><path style="opacity:0.545" fill="#666666" d="M 617.5,288.5 C 620.495,288.294 623.162,288.96 625.5,290.5C 622.505,290.706 619.838,290.04 617.5,288.5 Z"/></g>
<g><path style="opacity:0.812" fill="#656565" d="M 658.5,291.5 C 654.575,291.57 650.909,290.903 647.5,289.5C 648.822,289.67 649.989,289.337 651,288.5C 653.48,289.812 655.98,290.812 658.5,291.5 Z"/></g>
<g><path style="opacity:1" fill="#7c7c7c" d="M 625.5,290.5 C 628.518,290.335 631.518,290.502 634.5,291C 635.416,291.278 636.082,291.778 636.5,292.5C 632.613,292.354 628.946,291.687 625.5,290.5 Z"/></g>
<g><path style="opacity:1" fill="#6c6c6c" d="M 910.5,293.5 C 906.36,292.956 905.693,293.956 908.5,296.5C 904.514,294.119 900.18,293.119 895.5,293.5C 894.042,295.011 892.209,296.011 890,296.5C 890.268,292.07 892.768,289.737 897.5,289.5C 902.321,289.676 906.654,291.009 910.5,293.5 Z"/></g>
<g><path style="opacity:1" fill="#cccccc" d="M 895.5,293.5 C 894.448,293.649 893.448,293.483 892.5,293C 894.272,291.513 896.272,291.18 898.5,292C 897.263,292.232 896.263,292.732 895.5,293.5 Z"/></g>
<g><path style="opacity:1" fill="#e0e0e0" d="M 910.5,293.5 C 910.833,293.5 911.167,293.5 911.5,293.5C 911.414,294.496 911.748,295.329 912.5,296C 911.207,296.49 909.873,296.657 908.5,296.5C 905.693,293.956 906.36,292.956 910.5,293.5 Z"/></g>
<g><path style="opacity:0.18" fill="#484848" d="M 643.5,293.5 C 646.495,293.294 649.162,293.96 651.5,295.5C 648.572,295.435 645.905,294.768 643.5,293.5 Z"/></g>
<g><path style="opacity:0.522" fill="#636363" d="M 674.5,294.5 C 680.441,294.678 686.107,295.678 691.5,297.5C 690.5,297.5 689.5,297.5 688.5,297.5C 683.609,296.99 678.942,295.99 674.5,294.5 Z"/></g>
<g><path style="opacity:0.522" fill="#717171" d="M 444.5,283.5 C 444.131,285.993 444.797,286.66 446.5,285.5C 444.875,291.031 444.209,296.697 444.5,302.5C 443.833,302.833 443.167,303.167 442.5,303.5C 442.334,298.156 442.501,292.823 443,287.5C 443.21,285.942 443.71,284.609 444.5,283.5 Z"/></g>
<g><path style="opacity:1" fill="#7f7f7f" d="M 654.5,295.5 C 660.537,295.126 666.203,296.126 671.5,298.5C 665.614,298.02 659.948,297.02 654.5,295.5 Z"/></g>
<g><path style="opacity:1" fill="#838383" d="M 911.5,293.5 C 913.922,294.992 914.588,296.992 913.5,299.5C 911.604,298.725 909.937,297.725 908.5,296.5C 909.873,296.657 911.207,296.49 912.5,296C 911.748,295.329 911.414,294.496 911.5,293.5 Z"/></g>
<g><path style="opacity:0.847" fill="#959595" d="M 727.5,297.5 C 732.555,298.378 737.555,299.378 742.5,300.5C 743.66,302.203 742.993,302.869 740.5,302.5C 735.805,301.497 731.138,300.497 726.5,299.5C 723.742,298.033 724.075,297.367 727.5,297.5 Z"/></g>
<g><path style="opacity:0.945" fill="#a6a6a6" d="M 688.5,297.5 C 689.5,297.5 690.5,297.5 691.5,297.5C 695.291,297.659 698.958,298.325 702.5,299.5C 702.5,299.833 702.5,300.167 702.5,300.5C 697.675,299.701 693.008,298.701 688.5,297.5 Z"/></g>
<g><path style="opacity:1" fill="#898989" d="M 934.5,296.5 C 937.267,297.754 937.933,299.754 936.5,302.5C 933.827,301.499 931.493,299.999 929.5,298C 931.382,297.802 933.048,297.302 934.5,296.5 Z"/></g>
<g><path style="opacity:0.373" fill="#5e5e5e" d="M 702.5,300.5 C 702.5,300.167 702.5,299.833 702.5,299.5C 707.769,299.739 712.769,300.739 717.5,302.5C 712.477,301.994 707.477,301.327 702.5,300.5 Z"/></g>
<g><path style="opacity:0.906" fill="#969696" d="M 682.5,300.5 C 686.764,300.344 690.764,301.011 694.5,302.5C 693.833,302.5 693.167,302.5 692.5,302.5C 688.922,302.451 685.589,301.785 682.5,300.5 Z"/></g>
<g><path style="opacity:1" fill="#646464" d="M 742.5,300.5 C 750.11,301.011 757.444,302.344 764.5,304.5C 758.525,303.447 752.525,302.947 746.5,303C 748.058,303.21 749.391,303.71 750.5,304.5C 746.922,304.451 743.589,303.785 740.5,302.5C 742.993,302.869 743.66,302.203 742.5,300.5 Z"/></g>
<g><path style="opacity:0.427" fill="#5e5e5e" d="M 692.5,302.5 C 693.167,302.5 693.833,302.5 694.5,302.5C 699.391,303.01 704.058,304.01 708.5,305.5C 702.884,305.344 697.551,304.344 692.5,302.5 Z"/></g>
<g><path style="opacity:0.612" fill="#696969" d="M 717.5,302.5 C 724.498,303.265 731.498,304.099 738.5,305C 739.056,305.383 739.389,305.883 739.5,306.5C 731.914,305.95 724.581,304.617 717.5,302.5 Z"/></g>
<g><path style="opacity:0.853" fill="#707070" d="M 770.5,305.5 C 768.265,305.795 766.265,305.461 764.5,304.5C 766.842,303.013 768.842,303.346 770.5,305.5 Z"/></g>
<g><path style="opacity:0.588" fill="#6a6a6a" d="M 909.5,304.5 C 911.167,304.5 912.833,304.5 914.5,304.5C 914.299,308.35 912.466,309.35 909,307.5C 908.53,306.423 908.697,305.423 909.5,304.5 Z"/></g>
<g><path style="opacity:0.855" fill="#717171" d="M 774.5,306.5 C 772.901,306.768 771.568,306.434 770.5,305.5C 772.001,304.557 773.335,304.891 774.5,306.5 Z"/></g>
<g><path style="opacity:0.187" fill="#3b3b3b" d="M 444.5,302.5 C 445.299,305.43 445.632,308.43 445.5,311.5C 444.662,311.842 444.328,312.508 444.5,313.5C 443.419,310.373 442.753,307.04 442.5,303.5C 443.167,303.167 443.833,302.833 444.5,302.5 Z"/></g>
<g><path style="opacity:1" fill="#e5e5e5" d="M 910.5,305.5 C 912.337,305.639 912.67,306.306 911.5,307.5C 910.702,307.043 910.369,306.376 910.5,305.5 Z"/></g>
<g><path style="opacity:0.278" fill="#505050" d="M 714.5,306.5 C 717.428,306.565 720.095,307.232 722.5,308.5C 719.505,308.706 716.838,308.04 714.5,306.5 Z"/></g>
<g><path style="opacity:0.722" fill="#6c6c6c" d="M 740.5,306.5 C 748.454,306.918 756.121,308.251 763.5,310.5C 755.508,310.277 747.841,308.944 740.5,306.5 Z"/></g>
<g><path style="opacity:0.145" fill="#505050" d="M 767.5,308.5 C 770.059,308.198 772.393,308.532 774.5,309.5C 772.473,309.338 770.473,309.505 768.5,310C 769.056,310.383 769.389,310.883 769.5,311.5C 767.901,311.768 766.568,311.434 765.5,310.5C 766.833,310.5 767.5,309.833 767.5,308.5 Z"/></g>
<g><path style="opacity:1" fill="#c2c2c2" d="M 764.5,304.5 C 766.265,305.461 768.265,305.795 770.5,305.5C 771.568,306.434 772.901,306.768 774.5,306.5C 777.385,306.194 780.052,306.527 782.5,307.5C 788.145,309.853 787.811,310.853 781.5,310.5C 778.941,310.802 776.607,310.468 774.5,309.5C 772.393,308.532 770.059,308.198 767.5,308.5C 761.677,307.345 756.01,306.011 750.5,304.5C 749.391,303.71 748.058,303.21 746.5,303C 752.525,302.947 758.525,303.447 764.5,304.5 Z"/></g>
<g><path style="opacity:1" fill="#797979" d="M 782.5,307.5 C 787.99,308.462 793.323,309.795 798.5,311.5C 797.432,312.434 796.099,312.768 794.5,312.5C 789.951,312.376 785.618,311.709 781.5,310.5C 787.811,310.853 788.145,309.853 782.5,307.5 Z"/></g>
<g><path style="opacity:0.388" fill="#5c5c5c" d="M 962.5,307.5 C 964.086,308.413 965.586,308.413 967,307.5C 970.221,309.727 970.221,311.727 967,313.5C 963.134,312.85 961.634,310.85 962.5,307.5 Z"/></g>
<g><path style="opacity:1" fill="#919191" d="M 445.5,311.5 C 452.541,311.837 459.541,312.504 466.5,313.5C 466.5,313.833 466.5,314.167 466.5,314.5C 460.65,314.04 454.817,313.373 449,312.5C 447.615,312.514 446.449,312.848 445.5,313.5C 445.167,313.5 444.833,313.5 444.5,313.5C 444.328,312.508 444.662,311.842 445.5,311.5 Z"/></g>
<g><path style="opacity:1" fill="#8d8d8d" d="M 770.5,311.5 C 774.312,312.026 777.979,312.693 781.5,313.5C 777.351,314.08 773.684,313.414 770.5,311.5 Z"/></g>
<g><path style="opacity:1" fill="#8b8b8b" d="M 750.5,313.5 C 753.187,313.336 755.854,313.503 758.5,314C 759.416,314.278 760.082,314.778 760.5,315.5C 756.922,315.451 753.589,314.785 750.5,313.5 Z"/></g>
<g><path style="opacity:1" fill="#ededed" d="M 466.5,314.5 C 468.861,314.674 471.194,315.007 473.5,315.5C 479.985,316.934 486.651,318.101 493.5,319C 487.833,319.242 482.167,319.075 476.5,318.5C 468.101,316.368 459.435,315.368 450.5,315.5C 448.833,314.833 447.167,314.167 445.5,313.5C 446.449,312.848 447.615,312.514 449,312.5C 454.817,313.373 460.65,314.04 466.5,314.5 Z"/></g>
<g><path style="opacity:0.506" fill="#5a5a5a" d="M 466.5,314.5 C 466.5,314.167 466.5,313.833 466.5,313.5C 471.076,313.438 475.409,314.105 479.5,315.5C 477.5,315.5 475.5,315.5 473.5,315.5C 471.194,315.007 468.861,314.674 466.5,314.5 Z"/></g>
<g><path style="opacity:0.788" fill="#6a6a6a" d="M 450.5,315.5 C 459.435,315.368 468.101,316.368 476.5,318.5C 467.639,317.974 458.972,316.974 450.5,315.5 Z"/></g>
<g><path style="opacity:1" fill="#8e8e8e" d="M 761.5,315.5 C 764.85,315.335 768.183,315.502 771.5,316C 772.056,316.383 772.389,316.883 772.5,317.5C 768.613,317.354 764.946,316.687 761.5,315.5 Z"/></g>
<g><path style="opacity:0.333" fill="#454545" d="M 940.5,315.5 C 941.946,314.387 943.613,314.22 945.5,315C 944.934,315.995 944.267,316.828 943.5,317.5C 943.179,315.952 942.179,315.285 940.5,315.5 Z"/></g>
<g><path style="opacity:0.2" fill="#464646" d="M 444.5,313.5 C 444.833,313.5 445.167,313.5 445.5,313.5C 447.167,314.167 448.833,314.833 450.5,315.5C 449.127,315.343 447.793,315.51 446.5,316C 447.684,317.145 447.684,318.312 446.5,319.5C 445.542,317.698 444.875,315.698 444.5,313.5 Z"/></g>
<g><path style="opacity:1" fill="#b0b0b0" d="M 473.5,315.5 C 475.5,315.5 477.5,315.5 479.5,315.5C 485.208,315.84 490.875,316.507 496.5,317.5C 496.586,318.496 496.252,319.329 495.5,320C 493.19,320.497 490.857,320.663 488.5,320.5C 484.267,320.461 480.267,319.795 476.5,318.5C 482.167,319.075 487.833,319.242 493.5,319C 486.651,318.101 479.985,316.934 473.5,315.5 Z"/></g>
<g><path style="opacity:1" fill="#bcbcbc" d="M 940.5,315.5 C 942.179,315.285 943.179,315.952 943.5,317.5C 941.821,317.715 940.821,317.048 940.5,315.5 Z"/></g>
<g><path style="opacity:0.588" fill="#6f6f6f" d="M 797.5,316.5 C 801.122,316.322 804.456,316.989 807.5,318.5C 803.922,318.451 800.589,317.785 797.5,316.5 Z"/></g>
<g><path style="opacity:0.4" fill="#505050" d="M 940.5,315.5 C 940.821,317.048 941.821,317.715 943.5,317.5C 942.432,318.434 941.099,318.768 939.5,318.5C 939.263,317.209 939.596,316.209 940.5,315.5 Z"/></g>
<g><path style="opacity:1" fill="#9d9d9d" d="M 782.5,313.5 C 787.727,313.978 792.727,314.978 797.5,316.5C 793.625,316.085 789.958,316.585 786.5,318C 787.756,318.417 788.423,319.25 788.5,320.5C 784.96,320.247 781.627,319.581 778.5,318.5C 780.924,318.808 783.257,318.474 785.5,317.5C 784.09,316.431 783.09,315.097 782.5,313.5 Z"/></g>
<g><path style="opacity:0.027" fill="#505050" d="M 496.5,317.5 C 497.573,318.251 497.74,319.251 497,320.5C 494.154,322.811 491.321,322.811 488.5,320.5C 490.857,320.663 493.19,320.497 495.5,320C 496.252,319.329 496.586,318.496 496.5,317.5 Z"/></g>
<g><path style="opacity:0.922" fill="#beb9b5" d="M 571.5,320.5 C 580.218,319.131 587.885,321.297 594.5,327C 597,329.5 599.5,332 602,334.5C 601.779,339.838 601.112,345.172 600,350.5C 599.282,351.451 598.449,351.617 597.5,351C 589.116,342.616 579.616,335.783 569,330.5C 558.391,341.622 555.724,354.289 561,368.5C 567.496,376.069 575.662,378.569 585.5,376C 588.506,375.668 591.34,374.834 594,373.5C 594.25,370.15 595.083,366.983 596.5,364C 600.385,362.905 604.218,361.739 608,360.5C 606.145,376.066 601.478,390.732 594,404.5C 588.431,411.53 581.598,413.53 573.5,410.5C 574.909,407.273 575.909,403.94 576.5,400.5C 580.825,400.621 584.991,399.954 589,398.5C 590.653,393.246 591.653,387.913 592,382.5C 584.807,389.763 576.14,394.097 566,395.5C 552.492,393.66 544.492,385.994 542,372.5C 540.266,348.443 550.1,331.11 571.5,320.5 Z"/></g>
<g><path style="opacity:0.373" fill="#5c5c5c" d="M 812.5,319.5 C 822.117,320.323 831.45,321.99 840.5,324.5C 830.909,323.579 821.576,321.913 812.5,319.5 Z"/></g>
<g><path style="opacity:0.2" fill="#6e6e6e" d="M 789.5,320.5 C 797.423,321.088 805.09,322.421 812.5,324.5C 804.521,324.177 796.854,322.844 789.5,320.5 Z"/></g>
<g><path style="opacity:1" fill="#606060" d="M 798.5,311.5 C 822.273,315.351 845.94,319.851 869.5,325C 870.711,325.893 870.711,326.726 869.5,327.5C 844.525,322.105 819.525,317.105 794.5,312.5C 796.099,312.768 797.432,312.434 798.5,311.5 Z"/></g>
<g><path style="opacity:0.6" fill="#626262" d="M 893.5,333.5 C 888.454,333.319 883.454,331.985 878.5,329.5C 879.044,331.095 878.377,332.429 876.5,333.5C 876.5,331.833 876.5,330.167 876.5,328.5C 874.784,328.629 873.117,328.962 871.5,329.5C 872.287,327.896 873.62,327.229 875.5,327.5C 875.929,323.743 875.263,320.243 873.5,317C 875.296,311.9 877.963,311.733 881.5,316.5C 879.5,316.833 877.5,317.167 875.5,317.5C 876.313,318.814 877.313,319.981 878.5,321C 884.049,323.277 889.383,325.777 894.5,328.5C 894.192,329.308 893.692,329.975 893,330.5C 888.106,328.259 883.273,325.926 878.5,323.5C 877.417,324.365 877.251,325.365 878,326.5C 883.377,328.562 888.544,330.895 893.5,333.5 Z"/></g>
<g><path style="opacity:0.412" fill="#6a6a6a" d="M 840.5,324.5 C 848.732,325.205 856.732,326.539 864.5,328.5C 856.232,328.042 848.232,326.709 840.5,324.5 Z"/></g>
<g><path style="opacity:0.494" fill="#5f5f5f" d="M 817.5,325.5 C 821.16,325.159 824.493,325.825 827.5,327.5C 823.922,327.451 820.589,326.785 817.5,325.5 Z"/></g>
<g><path style="opacity:1" fill="#606060" d="M 969.5,324.5 C 975.418,324.352 975.918,325.686 971,328.5C 968.971,327.486 968.471,326.153 969.5,324.5 Z"/></g>
<g><path style="opacity:1" fill="#8b8b8b" d="M 828.5,327.5 C 832.649,326.92 836.316,327.586 839.5,329.5C 835.613,329.354 831.946,328.687 828.5,327.5 Z"/></g>
<g><path style="opacity:1" fill="#e4e4e4" d="M 797.5,316.5 C 800.589,317.785 803.922,318.451 807.5,318.5C 809.415,318.216 811.081,318.549 812.5,319.5C 821.576,321.913 830.909,323.579 840.5,324.5C 848.232,326.709 856.232,328.042 864.5,328.5C 866.903,328.448 869.236,328.781 871.5,329.5C 873.117,328.962 874.784,328.629 876.5,328.5C 876.5,330.167 876.5,331.833 876.5,333.5C 881.043,336.017 885.376,339.017 889.5,342.5C 888.081,343.451 886.415,343.784 884.5,343.5C 881.843,343.065 879.509,342.065 877.5,340.5C 877.027,339.094 876.027,338.427 874.5,338.5C 873.833,338.167 873.167,337.833 872.5,337.5C 870.081,335.138 867.081,334.138 863.5,334.5C 861.585,334.784 859.919,334.451 858.5,333.5C 858.389,332.883 858.056,332.383 857.5,332C 854.854,331.503 852.187,331.336 849.5,331.5C 846.061,331.212 842.728,330.546 839.5,329.5C 836.316,327.586 832.649,326.92 828.5,327.5C 828.167,327.5 827.833,327.5 827.5,327.5C 824.493,325.825 821.16,325.159 817.5,325.5C 815.585,325.784 813.919,325.451 812.5,324.5C 805.09,322.421 797.423,321.088 789.5,320.5C 789.167,320.5 788.833,320.5 788.5,320.5C 788.423,319.25 787.756,318.417 786.5,318C 789.958,316.585 793.625,316.085 797.5,316.5 Z"/></g>
<g><path style="opacity:0.988" fill="#6b6b6b" d="M 38.5,330.5 C 37.448,330.351 36.448,330.517 35.5,331C 36.7101,332.039 37.7101,333.206 38.5,334.5C 36.2712,333.945 34.6046,332.611 33.5,330.5C 35.2057,327.852 36.8724,327.852 38.5,330.5 Z"/></g>
<g><path style="opacity:0.255" fill="#515151" d="M 38.5,330.5 C 40.0269,330.427 41.0269,331.094 41.5,332.5C 39.9731,332.573 38.9731,331.906 38.5,330.5 Z"/></g>
<g><path style="opacity:1" fill="#a1a1a1" d="M 849.5,331.5 C 852.187,331.336 854.854,331.503 857.5,332C 858.056,332.383 858.389,332.883 858.5,333.5C 855.273,333.324 852.273,332.657 849.5,331.5 Z"/></g>
<g><path style="opacity:0.07" fill="#303030" d="M 893.5,333.5 C 894.978,333.238 896.311,333.571 897.5,334.5C 895.76,335.809 894.427,335.476 893.5,333.5 Z"/></g>
<g><path style="opacity:1" fill="#727272" d="M 43.5,333.5 C 45.8816,334.351 47.8816,335.684 49.5,337.5C 46.733,337.13 44.733,335.796 43.5,333.5 Z"/></g>
<g><path style="opacity:1" fill="#6f6f6f" d="M 863.5,334.5 C 867.081,334.138 870.081,335.138 872.5,337.5C 869.254,336.946 866.254,335.946 863.5,334.5 Z"/></g>
<g><path style="opacity:0.396" fill="#666666" d="M 336.5,337.5 C 325.409,335.84 314.409,336.173 303.5,338.5C 309.116,336.046 315.116,335.046 321.5,335.5C 326.767,335.287 331.767,335.954 336.5,337.5 Z"/></g>
<g><path style="opacity:0.912" fill="#beb9b5" d="M 666.5,336.5 C 678.263,336.517 681.93,342.017 677.5,353C 668.987,356.17 664.32,353.17 663.5,344C 663.11,340.876 664.11,338.376 666.5,336.5 Z"/></g>
<g><path style="opacity:0.906" fill="#747474" d="M 42.5,337.5 C 44.7488,338.08 46.4154,339.413 47.5,341.5C 45.2512,340.92 43.5846,339.587 42.5,337.5 Z"/></g>
<g><path style="opacity:1" fill="#7e7e7e" d="M 49.5,337.5 C 52.5396,338.68 55.2063,340.347 57.5,342.5C 54.0846,341.805 51.4179,340.138 49.5,337.5 Z"/></g>
<g><path style="opacity:1" fill="#868686" d="M 342.5,338.5 C 345.486,338.903 348.152,339.903 350.5,341.5C 347.083,341.977 344.416,340.977 342.5,338.5 Z"/></g>
<g><path style="opacity:0.522" fill="#636363" d="M 874.5,338.5 C 876.027,338.427 877.027,339.094 877.5,340.5C 875.973,340.573 874.973,339.906 874.5,338.5 Z"/></g>
<g><path style="opacity:1" fill="#939393" d="M 298.5,339.5 C 296.365,341.369 293.698,342.036 290.5,341.5C 292.905,340.232 295.572,339.565 298.5,339.5 Z"/></g>
<g><path style="opacity:1" fill="#e1e1e1" d="M 336.5,337.5 C 338.621,337.325 340.621,337.659 342.5,338.5C 344.416,340.977 347.083,341.977 350.5,341.5C 353.594,342.213 356.594,343.213 359.5,344.5C 361.91,347.659 365.243,349.325 369.5,349.5C 371.426,351.293 373.759,352.293 376.5,352.5C 378.426,354.293 380.759,355.293 383.5,355.5C 384.492,355.328 385.158,355.662 385.5,356.5C 387.32,358.448 389.654,359.448 392.5,359.5C 394.5,360.167 396.5,360.833 398.5,361.5C 398.821,363.048 399.821,363.715 401.5,363.5C 402.78,364.931 404.447,365.598 406.5,365.5C 414.912,368.436 423.578,370.102 432.5,370.5C 434.527,370.662 436.527,370.495 438.5,370C 439.056,369.617 439.389,369.117 439.5,368.5C 440.833,368.5 441.5,369.167 441.5,370.5C 439.928,371.687 438.261,372.687 436.5,373.5C 435.791,374.404 434.791,374.737 433.5,374.5C 428.833,374.5 424.167,374.5 419.5,374.5C 417.585,374.784 415.919,374.451 414.5,373.5C 409.412,370.914 404.078,368.914 398.5,367.5C 395.001,364.754 391.001,363.087 386.5,362.5C 380.864,360.678 375.531,358.345 370.5,355.5C 369.365,353.787 367.698,353.12 365.5,353.5C 364.486,352.326 363.153,351.66 361.5,351.5C 359.824,349.166 357.491,348.166 354.5,348.5C 353.209,348.737 352.209,348.404 351.5,347.5C 350.365,345.787 348.698,345.12 346.5,345.5C 343.495,343.723 340.162,342.723 336.5,342.5C 333.615,342.806 330.948,342.473 328.5,341.5C 326.022,340.836 323.355,340.503 320.5,340.5C 315.588,340.421 310.921,341.088 306.5,342.5C 303.539,343.323 300.539,343.99 297.5,344.5C 294.505,344.294 291.838,344.96 289.5,346.5C 288.432,347.434 287.099,347.768 285.5,347.5C 282.848,347.41 280.515,348.076 278.5,349.5C 276.786,350.738 274.786,351.405 272.5,351.5C 268.884,351.899 265.55,352.899 262.5,354.5C 260.401,355.612 258.067,356.279 255.5,356.5C 251.195,357.235 247.195,358.568 243.5,360.5C 242.167,360.833 240.833,361.167 239.5,361.5C 238.325,361.719 237.325,361.386 236.5,360.5C 237.707,358.459 239.374,357.126 241.5,356.5C 241.842,355.662 242.508,355.328 243.5,355.5C 248.438,354.769 253.105,353.435 257.5,351.5C 260.152,351.59 262.485,350.924 264.5,349.5C 273.466,347.451 282.133,344.784 290.5,341.5C 293.698,342.036 296.365,341.369 298.5,339.5C 299.919,338.549 301.585,338.216 303.5,338.5C 314.409,336.173 325.409,335.84 336.5,337.5 Z"/></g>
<g><path style="opacity:0.18" fill="#4f4f4f" d="M 328.5,341.5 C 321.151,341.549 313.817,341.882 306.5,342.5C 310.921,341.088 315.588,340.421 320.5,340.5C 323.355,340.503 326.022,340.836 328.5,341.5 Z"/></g>
<g><path style="opacity:0.573" fill="#727272" d="M 49.5,342.5 C 51.0269,342.427 52.0269,343.094 52.5,344.5C 50.9731,344.573 49.9731,343.906 49.5,342.5 Z"/></g>
<g><path style="opacity:1" fill="#6f6f6f" d="M 58.5,342.5 C 60.3684,343.263 62.0351,344.263 63.5,345.5C 60.9664,345.741 59.2998,344.741 58.5,342.5 Z"/></g>
<g><path style="opacity:0.973" fill="#808080" d="M 336.5,342.5 C 340.162,342.723 343.495,343.723 346.5,345.5C 342.838,345.277 339.505,344.277 336.5,342.5 Z"/></g>
<g><path style="opacity:0.522" fill="#636363" d="M 446.5,319.5 C 447.79,320.058 448.623,321.058 449,322.5C 453.183,333.481 454.517,344.814 453,356.5C 452.059,358.727 450.892,360.727 449.5,362.5C 449.672,361.508 449.338,360.842 448.5,360.5C 450.286,355.685 451.286,350.685 451.5,345.5C 450.601,336.672 448.934,328.005 446.5,319.5 Z"/></g>
<g><path style="opacity:0.773" fill="#737373" d="M 889.5,342.5 C 892.953,343.358 893.12,344.358 890,345.5C 887.889,345.299 886.055,344.633 884.5,343.5C 886.415,343.784 888.081,343.451 889.5,342.5 Z"/></g>
<g><path style="opacity:0.012" fill="#333333" d="M 913.5,341.5 C 915.346,341.222 916.68,341.889 917.5,343.5C 915.167,344.941 913.834,344.275 913.5,341.5 Z"/></g>
<g><path style="opacity:0.812" fill="#7a7a7a" d="M 927.5,347.5 C 927.5,346.5 927.5,345.5 927.5,344.5C 923.763,344.241 921.43,345.907 920.5,349.5C 919.197,347.243 919.864,345.41 922.5,344C 924.5,343.333 926.5,343.333 928.5,344C 929.8,345.579 929.466,346.745 927.5,347.5 Z"/></g>
<g><path style="opacity:1" fill="#dedede" d="M 927.5,347.5 C 925.852,348.81 924.186,350.143 922.5,351.5C 921.478,351.145 920.811,350.478 920.5,349.5C 921.43,345.907 923.763,344.241 927.5,344.5C 927.5,345.5 927.5,346.5 927.5,347.5 Z"/></g>
<g><path style="opacity:1" fill="#a0a0a0" d="M 52.5,344.5 C 55.285,343.916 56.9517,344.916 57.5,347.5C 55.326,347.25 53.6594,346.25 52.5,344.5 Z"/></g>
<g><path style="opacity:0.706" fill="#7b7b7b" d="M 290.5,341.5 C 282.133,344.784 273.466,347.451 264.5,349.5C 272.805,345.963 281.472,343.296 290.5,341.5 Z"/></g>
<g><path style="opacity:0.122" fill="#515151" d="M 297.5,344.5 C 295.095,345.768 292.428,346.435 289.5,346.5C 291.838,344.96 294.505,344.294 297.5,344.5 Z"/></g>
<g><path style="opacity:1" fill="#7b7b7b" d="M 346.5,345.5 C 348.698,345.12 350.365,345.787 351.5,347.5C 349.447,347.598 347.78,346.931 346.5,345.5 Z"/></g>
<g><path style="opacity:0.8" fill="#7a7a7a" d="M 359.5,344.5 C 363.299,345.421 366.632,347.088 369.5,349.5C 365.243,349.325 361.91,347.659 359.5,344.5 Z"/></g>
<g><path style="opacity:0.494" fill="#666666" d="M 63.5,345.5 C 65.674,345.75 67.3406,346.75 68.5,348.5C 66.326,348.25 64.6594,347.25 63.5,345.5 Z"/></g>
<g><path style="opacity:0.839" fill="#6c6c6c" d="M 59.5,348.5 C 61.0269,348.427 62.0269,349.094 62.5,350.5C 60.9731,350.573 59.9731,349.906 59.5,348.5 Z"/></g>
<g><path style="opacity:0.506" fill="#616161" d="M 285.5,347.5 C 283.485,348.924 281.152,349.59 278.5,349.5C 280.515,348.076 282.848,347.41 285.5,347.5 Z"/></g>
<g><path style="opacity:0.306" fill="#595959" d="M 264.5,349.5 C 262.485,350.924 260.152,351.59 257.5,351.5C 259.515,350.076 261.848,349.41 264.5,349.5 Z"/></g>
<g><path style="opacity:0.388" fill="#636363" d="M 369.5,349.5 C 372.241,349.707 374.574,350.707 376.5,352.5C 373.759,352.293 371.426,351.293 369.5,349.5 Z"/></g>
<g><path style="opacity:0.973" fill="#9b9b9b" d="M 354.5,348.5 C 357.491,348.166 359.824,349.166 361.5,351.5C 358.843,351.065 356.509,350.065 354.5,348.5 Z"/></g>
<g><path style="opacity:0.93" fill="#beb9b5" d="M 626.5,350.5 C 628.199,350.34 629.866,350.506 631.5,351C 628.989,359.304 628.155,367.804 629,376.5C 629.782,379.216 631.116,381.55 633,383.5C 634.605,382.899 635.938,381.899 637,380.5C 637.711,371.806 637.544,363.139 636.5,354.5C 642.154,355.055 647.82,355.555 653.5,356C 652.167,369 652.167,382 653.5,395C 648.019,396.449 642.352,396.949 636.5,396.5C 637.008,393.824 637.175,391.157 637,388.5C 633.419,390.374 629.919,392.374 626.5,394.5C 615.459,390.434 611.125,382.434 613.5,370.5C 613.695,364.153 614.028,357.82 614.5,351.5C 618.702,351.817 622.702,351.483 626.5,350.5 Z"/></g>
<g><path style="opacity:0.478" fill="#666666" d="M 72.5,350.5 C 75.4432,350.98 78.1098,351.98 80.5,353.5C 77.3511,353.585 74.6845,352.585 72.5,350.5 Z"/></g>
<g><path style="opacity:0.239" fill="#515151" d="M 361.5,351.5 C 363.153,351.66 364.486,352.326 365.5,353.5C 363.62,353.771 362.287,353.104 361.5,351.5 Z"/></g>
<g><path style="opacity:0.161" fill="#555555" d="M 272.5,351.5 C 269.548,353.41 266.214,354.41 262.5,354.5C 265.55,352.899 268.884,351.899 272.5,351.5 Z"/></g>
<g><path style="opacity:1" fill="#7a7a7a" d="M 365.5,353.5 C 367.698,353.12 369.365,353.787 370.5,355.5C 368.597,355.204 366.93,354.537 365.5,353.5 Z"/></g>
<g><path style="opacity:0.522" fill="#6c6c6c" d="M 376.5,352.5 C 379.241,352.707 381.574,353.707 383.5,355.5C 380.759,355.293 378.426,354.293 376.5,352.5 Z"/></g>
<g><path style="opacity:0.733" fill="#757575" d="M 64.5,351.5 C 67.5447,352.279 70.2114,353.613 72.5,355.5C 69.279,355.104 66.6123,353.771 64.5,351.5 Z"/></g>
<g><path style="opacity:0.827" fill="#6c6c6c" d="M 257.5,351.5 C 253.105,353.435 248.438,354.769 243.5,355.5C 247.805,353.254 252.471,351.92 257.5,351.5 Z"/></g>
<g><path style="opacity:0.012" fill="#212221" d="M 949.5,354.5 C 950.833,355.167 950.833,355.167 949.5,354.5 Z"/></g>
<g><path style="opacity:0.439" fill="#616161" d="M 958.5,355.5 C 956.784,355.629 955.117,355.962 953.5,356.5C 954.879,354.403 956.545,354.07 958.5,355.5 Z"/></g>
<g><path style="opacity:1" fill="#959595" d="M 80.5,353.5 C 85.2524,355.193 89.919,356.86 94.5,358.5C 91.1262,358.326 87.7928,357.826 84.5,357C 82.6763,356.34 81.343,355.173 80.5,353.5 Z"/></g>
<g><path style="opacity:0.467" fill="#585858" d="M 255.5,356.5 C 251.902,358.74 247.902,360.074 243.5,360.5C 247.195,358.568 251.195,357.235 255.5,356.5 Z"/></g>
<g><path style="opacity:1" fill="#858585" d="M 76.5,357.5 C 79.491,357.166 81.8243,358.166 83.5,360.5C 80.8427,360.065 78.5093,359.065 76.5,357.5 Z"/></g>
<g><path style="opacity:0.926" fill="#beb9b5" d="M 691.5,357.5 C 696.167,357.5 700.833,357.5 705.5,357.5C 705.337,359.857 705.503,362.19 706,364.5C 708.461,365.218 710.961,365.885 713.5,366.5C 714.192,369.77 714.192,373.103 713.5,376.5C 710.873,375.908 708.206,375.575 705.5,375.5C 703.837,381.363 704.337,387.03 707,392.5C 709.158,393.826 710.992,395.493 712.5,397.5C 710.123,401.623 707.289,405.29 704,408.5C 694.299,404.598 689.799,397.432 690.5,387C 690.658,382.808 690.991,378.641 691.5,374.5C 689.801,374.66 688.134,374.494 686.5,374C 690.855,369.344 692.522,363.844 691.5,357.5 Z"/></g>
<g><path style="opacity:0.306" fill="#555555" d="M 958.5,355.5 C 960.552,356.053 960.885,357.053 959.5,358.5C 959.443,357.391 959.11,356.391 958.5,355.5 Z"/></g>
<g><path style="opacity:1" fill="#a5a5a5" d="M 241.5,356.5 C 239.374,357.126 237.707,358.459 236.5,360.5C 237.325,361.386 238.325,361.719 239.5,361.5C 235.498,363.61 231.165,364.943 226.5,365.5C 229.488,364.118 232.488,362.452 235.5,360.5C 234.667,360.167 233.833,359.833 233,359.5C 228.601,361.024 224.101,362.024 219.5,362.5C 226.383,359.277 233.717,357.277 241.5,356.5 Z"/></g>
<g><path style="opacity:0.588" fill="#757575" d="M 385.5,356.5 C 388.157,356.935 390.491,357.935 392.5,359.5C 389.654,359.448 387.32,358.448 385.5,356.5 Z"/></g>
<g><path style="opacity:1" fill="#d4d4d4" d="M 908.5,360.5 C 907.833,360.833 907.167,361.167 906.5,361.5C 905.414,361.38 904.747,360.713 904.5,359.5C 904.833,358.833 905.167,358.167 905.5,357.5C 907.213,357.879 908.213,358.879 908.5,360.5 Z"/></g>
<g><path style="opacity:1" fill="#ebebeb" d="M 958.5,355.5 C 959.11,356.391 959.443,357.391 959.5,358.5C 957.973,358.427 956.973,359.094 956.5,360.5C 954.678,360.831 953.011,361.498 951.5,362.5C 951.253,360.142 951.919,358.142 953.5,356.5C 955.117,355.962 956.784,355.629 958.5,355.5 Z"/></g>
<g><path style="opacity:1" fill="#838383" d="M 94.5,358.5 C 96.5529,358.402 98.2196,359.069 99.5,360.5C 97.2188,360.923 95.5521,360.256 94.5,358.5 Z"/></g>
<g><path style="opacity:0.949" fill="#beb9b5" d="M 677.5,359.5 C 678.821,362.598 679.488,366.098 679.5,370C 680.166,380.491 680.5,390.991 680.5,401.5C 675.167,401.5 669.833,401.5 664.5,401.5C 665.424,391.539 665.758,381.539 665.5,371.5C 659.11,372.782 657.11,370.449 659.5,364.5C 665.868,363.744 671.868,362.078 677.5,359.5 Z"/></g>
<g><path style="opacity:0.027" fill="#383838" d="M 959.5,358.5 C 959.027,359.906 958.027,360.573 956.5,360.5C 956.973,359.094 957.973,358.427 959.5,358.5 Z"/></g>
<g><path style="opacity:1" fill="#858585" d="M 83.5,360.5 C 85.698,360.12 87.3646,360.787 88.5,362.5C 86.597,362.204 84.9303,361.537 83.5,360.5 Z"/></g>
<g><path style="opacity:0.733" fill="#5e5e5e" d="M 953.5,356.5 C 951.919,358.142 951.253,360.142 951.5,362.5C 949.559,361.362 949.392,359.696 951,357.5C 951.671,356.748 952.504,356.414 953.5,356.5 Z"/></g>
<g><path style="opacity:1" fill="#949494" d="M 956.5,360.5 C 955.409,363.192 953.743,363.858 951.5,362.5C 953.011,361.498 954.678,360.831 956.5,360.5 Z"/></g>
<g><path style="opacity:0.227" fill="#4e4e4e" d="M 908.5,360.5 C 908.213,358.879 907.213,357.879 905.5,357.5C 905.167,358.167 904.833,358.833 904.5,359.5C 904.747,360.713 905.414,361.38 906.5,361.5C 905.457,363.852 904.124,364.019 902.5,362C 903.406,360.301 903.739,358.467 903.5,356.5C 906.38,356.033 908.713,356.866 910.5,359C 910.164,360.03 909.497,360.53 908.5,360.5 Z"/></g>
<g><path style="opacity:0.973" fill="#6f6f6f" d="M 88.5,362.5 C 95.808,364.327 103.141,366.16 110.5,368C 111.056,368.383 111.389,368.883 111.5,369.5C 103.441,368.145 95.7748,365.811 88.5,362.5 Z"/></g>
<g><path style="opacity:1" fill="#818181" d="M 386.5,362.5 C 391.001,363.087 395.001,364.754 398.5,367.5C 393.983,366.903 389.983,365.237 386.5,362.5 Z"/></g>
<g><path style="opacity:0.878" fill="#6c6c6c" d="M 398.5,361.5 C 399.71,361.932 400.71,362.599 401.5,363.5C 399.821,363.715 398.821,363.048 398.5,361.5 Z"/></g>
<g><path style="opacity:0.427" fill="#6e6e6e" d="M 918.5,361.5 C 919.097,360.861 919.93,360.528 921,360.5C 924.478,360.761 924.978,361.761 922.5,363.5C 920.927,363.248 919.594,362.582 918.5,361.5 Z"/></g>
<g><path style="opacity:1" fill="#e8e8e8" d="M 38.5,330.5 C 38.9731,331.906 39.9731,332.573 41.5,332.5C 42.4916,332.328 43.1583,332.662 43.5,333.5C 44.733,335.796 46.733,337.13 49.5,337.5C 51.4179,340.138 54.0846,341.805 57.5,342.5C 57.8333,342.5 58.1667,342.5 58.5,342.5C 59.2998,344.741 60.9664,345.741 63.5,345.5C 64.6594,347.25 66.326,348.25 68.5,348.5C 70.153,348.66 71.4863,349.326 72.5,350.5C 74.6845,352.585 77.3511,353.585 80.5,353.5C 81.343,355.173 82.6763,356.34 84.5,357C 87.7928,357.826 91.1262,358.326 94.5,358.5C 95.5521,360.256 97.2188,360.923 99.5,360.5C 99.8333,360.5 100.167,360.5 100.5,360.5C 101.23,362.045 102.563,362.878 104.5,363C 108.418,364.156 112.418,364.656 116.5,364.5C 118.277,365.6 120.277,366.434 122.5,367C 129.836,367.9 137.169,368.733 144.5,369.5C 154.988,370.686 165.322,370.686 175.5,369.5C 175.833,369.5 176.167,369.5 176.5,369.5C 182.098,369.844 187.432,369.178 192.5,367.5C 195.187,367.664 197.854,367.497 200.5,367C 201.416,366.722 202.082,366.222 202.5,365.5C 203.167,365.5 203.833,365.5 204.5,365.5C 209.752,365.138 214.752,364.138 219.5,362.5C 224.101,362.024 228.601,361.024 233,359.5C 233.833,359.833 234.667,360.167 235.5,360.5C 232.488,362.452 229.488,364.118 226.5,365.5C 220.744,365.606 215.411,366.939 210.5,369.5C 205.392,371.521 200.058,372.521 194.5,372.5C 188.274,372.388 182.274,373.054 176.5,374.5C 167.833,375.833 159.167,375.833 150.5,374.5C 139.655,372.935 128.655,371.601 117.5,370.5C 115.5,370.167 113.5,369.833 111.5,369.5C 111.389,368.883 111.056,368.383 110.5,368C 103.141,366.16 95.808,364.327 88.5,362.5C 87.3646,360.787 85.698,360.12 83.5,360.5C 81.8243,358.166 79.491,357.166 76.5,357.5C 74.847,357.34 73.5137,356.674 72.5,355.5C 70.2114,353.613 67.5447,352.279 64.5,351.5C 63.5084,351.672 62.8417,351.338 62.5,350.5C 62.0269,349.094 61.0269,348.427 59.5,348.5C 58.5084,348.672 57.8417,348.338 57.5,347.5C 56.9517,344.916 55.285,343.916 52.5,344.5C 52.0269,343.094 51.0269,342.427 49.5,342.5C 48.5084,342.672 47.8417,342.338 47.5,341.5C 46.4154,339.413 44.7488,338.08 42.5,337.5C 40.5956,337.262 39.2623,336.262 38.5,334.5C 37.7101,333.206 36.7101,332.039 35.5,331C 36.448,330.517 37.448,330.351 38.5,330.5 Z"/></g>
<g><path style="opacity:1" fill="#808080" d="M 100.5,360.5 C 105.911,361.977 111.244,363.31 116.5,364.5C 112.418,364.656 108.418,364.156 104.5,363C 102.563,362.878 101.23,362.045 100.5,360.5 Z"/></g>
<g><path style="opacity:0.839" fill="#727272" d="M 219.5,362.5 C 214.752,364.138 209.752,365.138 204.5,365.5C 209.205,363.678 214.205,362.678 219.5,362.5 Z"/></g>
<g><path style="opacity:0.573" fill="#6c6c6c" d="M 401.5,363.5 C 403.553,363.402 405.22,364.069 406.5,365.5C 404.447,365.598 402.78,364.931 401.5,363.5 Z"/></g>
<g><path style="opacity:0.27" fill="#484848" d="M 925.5,362.5 C 929.981,363.518 934.314,364.851 938.5,366.5C 934.307,367.83 930.307,367.33 926.5,365C 925.748,364.329 925.414,363.496 925.5,362.5 Z"/></g>
<g><path style="opacity:0.133" fill="#3a3a3a" d="M 975.5,363.5 C 977.625,364.368 977.791,365.368 976,366.5C 974.317,365.824 974.15,364.824 975.5,363.5 Z"/></g>
<g><path style="opacity:0.127" fill="#323232" d="M 232.5,365.5 C 233.525,365.897 233.692,366.563 233,367.5C 232.536,366.906 232.369,366.239 232.5,365.5 Z"/></g>
<g><path style="opacity:0.8" fill="#7a7a7a" d="M 116.5,364.5 C 125.805,366.051 135.138,367.384 144.5,368.5C 144.5,368.833 144.5,369.167 144.5,369.5C 137.169,368.733 129.836,367.9 122.5,367C 120.277,366.434 118.277,365.6 116.5,364.5 Z"/></g>
<g><path style="opacity:1" fill="#818181" d="M 202.5,365.5 C 202.082,366.222 201.416,366.722 200.5,367C 197.854,367.497 195.187,367.664 192.5,367.5C 195.627,366.419 198.96,365.753 202.5,365.5 Z"/></g>
<g><path style="opacity:0.212" fill="#626262" d="M 226.5,365.5 C 221.372,367.198 216.039,368.531 210.5,369.5C 215.411,366.939 220.744,365.606 226.5,365.5 Z"/></g>
<g><path style="opacity:1" fill="#848484" d="M 398.5,367.5 C 404.078,368.914 409.412,370.914 414.5,373.5C 408.656,372.566 403.323,370.566 398.5,367.5 Z"/></g>
<g><path style="opacity:0.929" fill="#beb9b5" d="M 729.5,367.5 C 737.197,369.266 744.364,372.266 751,376.5C 752.439,378.275 753.439,380.275 754,382.5C 754.18,392.41 754.68,402.244 755.5,412C 750.213,413.161 744.879,413.994 739.5,414.5C 740.387,408.855 740.554,403.188 740,397.5C 736.201,402.301 732.034,406.801 727.5,411C 724.049,410.869 720.882,409.702 718,407.5C 716.175,398.477 716.175,389.477 718,380.5C 720.984,375.353 724.818,371.02 729.5,367.5 Z M 730.5,380.5 C 734.031,381.697 737.031,383.697 739.5,386.5C 737.494,390.513 734.994,394.18 732,397.5C 731.627,391.811 731.127,386.145 730.5,380.5 Z"/></g>
<g><path style="opacity:0.2" fill="#424242" d="M 941.5,367.5 C 943.983,367.73 944.483,368.397 943,369.5C 941.97,369.164 941.47,368.497 941.5,367.5 Z"/></g>
<g><path style="opacity:1" fill="#6b6b6b" d="M 192.5,367.5 C 187.432,369.178 182.098,369.844 176.5,369.5C 181.633,368.335 186.966,367.668 192.5,367.5 Z"/></g>
<g><path style="opacity:1" fill="#a7a7a7" d="M 448.5,360.5 C 449.338,360.842 449.672,361.508 449.5,362.5C 447.854,365.81 445.52,368.477 442.5,370.5C 442.167,370.5 441.833,370.5 441.5,370.5C 441.5,369.167 440.833,368.5 439.5,368.5C 442.5,365.833 445.5,363.167 448.5,360.5 Z"/></g>
<g><path style="opacity:1" fill="#e2e2e2" d="M 984.5,367.5 C 985.978,367.238 987.311,367.571 988.5,368.5C 986.927,369.66 985.261,370.66 983.5,371.5C 982.287,371.253 981.62,370.586 981.5,369.5C 981.973,368.094 982.973,367.427 984.5,367.5 Z"/></g>
<g><path style="opacity:0.273" fill="#5c5c5c" d="M 144.5,369.5 C 144.5,369.167 144.5,368.833 144.5,368.5C 154.815,369.267 165.148,369.601 175.5,369.5C 165.322,370.686 154.988,370.686 144.5,369.5 Z"/></g>
<g><path style="opacity:1" fill="#797979" d="M 439.5,368.5 C 439.389,369.117 439.056,369.617 438.5,370C 436.527,370.495 434.527,370.662 432.5,370.5C 434.599,369.388 436.933,368.721 439.5,368.5 Z"/></g>
<g><path style="opacity:0.055" fill="#4f4f4f" d="M 906.5,367.5 C 908.625,368.368 908.791,369.368 907,370.5C 905.317,369.824 905.15,368.824 906.5,367.5 Z"/></g>
<g><path style="opacity:0.639" fill="#4d4d4d" d="M 913.5,368.5 C 915.465,368.948 915.798,369.948 914.5,371.5C 912.481,370.867 912.147,369.867 913.5,368.5 Z"/></g>
<g><path style="opacity:1" fill="#989898" d="M 981.5,369.5 C 981.62,370.586 982.287,371.253 983.5,371.5C 985.261,370.66 986.927,369.66 988.5,368.5C 987.311,367.571 985.978,367.238 984.5,367.5C 984.783,366.711 985.283,366.044 986,365.5C 991.183,366.684 991.683,368.851 987.5,372C 984.761,374.193 982.428,373.86 980.5,371C 980.57,370.235 980.903,369.735 981.5,369.5 Z"/></g>
<g><path style="opacity:1" fill="#7f7f7f" d="M 117.5,370.5 C 128.655,371.601 139.655,372.935 150.5,374.5C 139.21,374.357 128.21,373.023 117.5,370.5 Z"/></g>
<g><path style="opacity:0.027" fill="#454545" d="M 441.5,370.5 C 441.833,370.5 442.167,370.5 442.5,370.5C 441.393,372.969 439.393,373.969 436.5,373.5C 438.261,372.687 439.928,371.687 441.5,370.5 Z"/></g>
<g><path style="opacity:0.761" fill="#767676" d="M 194.5,372.5 C 188.712,373.81 182.712,374.477 176.5,374.5C 182.274,373.054 188.274,372.388 194.5,372.5 Z"/></g>
<g><path style="opacity:0.694" fill="#737373" d="M 945.5,371.5 C 945.281,370.325 945.614,369.325 946.5,368.5C 949.545,370.598 952.878,372.098 956.5,373C 958.945,376.717 958.279,377.217 954.5,374.5C 952.722,374.569 950.889,374.903 949,375.5C 947.266,374.751 945.433,374.251 943.5,374C 942.391,372.187 943.058,371.354 945.5,371.5 Z"/></g>
<g><path style="opacity:1" fill="#e1e1e1" d="M 945.5,371.5 C 946.978,371.238 948.311,371.571 949.5,372.5C 948.833,372.833 948.167,373.167 947.5,373.5C 946.287,373.253 945.62,372.586 945.5,371.5 Z"/></g>
<g><path style="opacity:0.82" fill="#707070" d="M 419.5,374.5 C 424.167,374.5 428.833,374.5 433.5,374.5C 428.916,376.579 424.249,376.579 419.5,374.5 Z"/></g>
<g><path style="opacity:0.914" fill="#beb9b5" d="M 763.5,374.5 C 768.167,375.5 772.833,376.5 777.5,377.5C 777.335,380.518 777.502,383.518 778,386.5C 778.836,377.67 783.336,374.837 791.5,378C 792.578,378.674 793.245,379.674 793.5,381C 792.532,386.379 791.032,391.546 789,396.5C 786.743,394.954 784.576,393.288 782.5,391.5C 778.666,395.156 777.666,399.489 779.5,404.5C 781.323,405.747 783.323,406.414 785.5,406.5C 784.674,410.812 783.34,414.979 781.5,419C 771.838,419.924 765.671,415.757 763,406.5C 762.291,395.811 762.458,385.144 763.5,374.5 Z"/></g>
<g><path style="opacity:0.333" fill="#3c3c3c" d="M 906.5,374.5 C 908.76,375.238 908.927,376.238 907,377.5C 906.517,376.552 906.351,375.552 906.5,374.5 Z"/></g>
<g><path style="opacity:0.012" fill="#3d3d3d" d="M 10.5,375.5 C 11.5,375.833 12.1667,376.5 12.5,377.5C 11.1667,377.5 10.5,376.833 10.5,375.5 Z"/></g>
<g><path style="opacity:0.627" fill="#626262" d="M 16.5,376.5 C 18.2303,377.026 19.5637,378.026 20.5,379.5C 18.368,379.446 17.0347,378.446 16.5,376.5 Z"/></g>
<g><path style="opacity:0.855" fill="#777777" d="M 962.5,377.5 C 963.756,377.461 964.756,377.961 965.5,379C 960.419,387.812 959.419,387.312 962.5,377.5 Z"/></g>
<g><path style="opacity:0.839" fill="#6b6b6b" d="M 15.5,379.5 C 17.4044,379.738 18.7377,380.738 19.5,382.5C 17.5956,382.262 16.2623,381.262 15.5,379.5 Z"/></g>
<g><path style="opacity:0.839" fill="#757575" d="M 284.5,380.5 C 287.314,379.835 290.314,379.502 293.5,379.5C 298.745,379.392 303.745,380.058 308.5,381.5C 300.521,380.776 292.521,380.442 284.5,380.5 Z"/></g>
<g><path style="opacity:0.706" fill="#757575" d="M 935.5,379.5 C 936.5,379.5 937.5,379.5 938.5,379.5C 938.5,380.5 938.5,381.5 938.5,382.5C 937.5,382.5 936.5,382.5 935.5,382.5C 935.5,381.5 935.5,380.5 935.5,379.5 Z"/></g>
<g><path style="opacity:0.227" fill="#3d3d3d" d="M 902.5,379.5 C 900.787,380.635 900.12,382.302 900.5,384.5C 899.387,383.054 899.22,381.387 900,379.5C 900.977,378.226 901.811,378.226 902.5,379.5 Z"/></g>
<g><path style="opacity:0.627" fill="#7d7d7d" d="M 902.5,379.5 C 903.167,379.5 903.5,379.833 903.5,380.5C 905.607,381.468 907.941,381.802 910.5,381.5C 912.806,381.993 915.139,382.326 917.5,382.5C 917.833,382.5 918.167,382.5 918.5,382.5C 913.02,383.004 907.353,383.004 901.5,382.5C 901.5,384.5 901.5,386.5 901.5,388.5C 900.566,387.432 900.232,386.099 900.5,384.5C 900.12,382.302 900.787,380.635 902.5,379.5 Z"/></g>
<g><path style="opacity:1" fill="#424242" d="M 910.5,381.5 C 907.941,381.802 905.607,381.468 903.5,380.5C 906.39,377.528 908.724,377.861 910.5,381.5 Z"/></g>
<g><path style="opacity:0.561" fill="#4c4c4c" d="M 923.5,381.5 C 921.784,381.629 920.117,381.962 918.5,382.5C 918.167,382.5 917.833,382.5 917.5,382.5C 918.359,380.894 918.526,379.227 918,377.5C 919.812,378.977 921.645,380.31 923.5,381.5 Z"/></g>
<g><path style="opacity:0.878" fill="#7d7d7d" d="M 942.5,378.5 C 946.019,378.187 947.353,379.52 946.5,382.5C 943.07,383.742 941.737,382.409 942.5,378.5 Z"/></g>
<g><path style="opacity:0.573" fill="#717171" d="M 969.5,379.5 C 971.103,379.312 972.437,379.812 973.5,381C 971.537,381.844 970.204,381.344 969.5,379.5 Z"/></g>
<g><path style="opacity:1" fill="#afafaf" d="M 16.5,376.5 C 17.0347,378.446 18.368,379.446 20.5,379.5C 27.7364,383.61 34.7364,387.943 41.5,392.5C 43.5792,394.873 46.2459,396.206 49.5,396.5C 51.153,396.66 52.4863,397.326 53.5,398.5C 51.8008,398.34 50.1341,398.506 48.5,399C 49.056,399.383 49.3893,399.883 49.5,400.5C 45.1822,399.008 41.1822,397.008 37.5,394.5C 37.0269,393.094 36.0269,392.427 34.5,392.5C 28.9756,389.908 23.9756,386.575 19.5,382.5C 18.7377,380.738 17.4044,379.738 15.5,379.5C 13.9731,379.573 12.9731,378.906 12.5,377.5C 12.1667,376.5 11.5,375.833 10.5,375.5C 7.88612,374.736 6.71945,373.07 7,370.5C 10.4845,372.15 13.6512,374.15 16.5,376.5 Z"/></g>
<g><path style="opacity:1" fill="#919191" d="M 284.5,380.5 C 283.391,381.29 282.058,381.79 280.5,382C 288.4,382.075 296.066,382.908 303.5,384.5C 293.14,383.418 282.807,383.752 272.5,385.5C 270.801,385.66 269.134,385.494 267.5,385C 269.491,384.626 271.158,383.793 272.5,382.5C 276.36,381.196 280.36,380.529 284.5,380.5 Z"/></g>
<g><path style="opacity:0.012" fill="#202120" d="M 940.5,381.5 C 941.833,382.167 941.833,382.167 940.5,381.5 Z"/></g>
<g><path style="opacity:1" fill="#e6e6e6" d="M 923.5,381.5 C 924.338,381.842 924.672,382.508 924.5,383.5C 924.674,385.861 925.007,388.194 925.5,390.5C 923.423,394.123 920.256,395.79 916,395.5C 912.212,395.403 908.712,394.403 905.5,392.5C 904.5,390.833 903.167,389.5 901.5,388.5C 901.5,386.5 901.5,384.5 901.5,382.5C 907.353,383.004 913.02,383.004 918.5,382.5C 920.117,381.962 921.784,381.629 923.5,381.5 Z"/></g>
<g><path style="opacity:1" fill="#818181" d="M 272.5,382.5 C 271.158,383.793 269.491,384.626 267.5,385C 269.134,385.494 270.801,385.66 272.5,385.5C 270.626,386.285 268.626,386.952 266.5,387.5C 266.38,386.414 265.713,385.747 264.5,385.5C 262.547,386.156 260.547,386.489 258.5,386.5C 262.895,384.565 267.562,383.231 272.5,382.5 Z"/></g>
<g><path style="opacity:0.4" fill="#595959" d="M 304.5,384.5 C 307.829,384.215 310.829,384.882 313.5,386.5C 310.273,386.324 307.273,385.657 304.5,384.5 Z"/></g>
<g><path style="opacity:1" fill="#7b7b7b" d="M 308.5,381.5 C 315.373,382.129 321.706,384.129 327.5,387.5C 320.75,386.494 314.417,384.494 308.5,381.5 Z"/></g>
<g><path style="opacity:0.361" fill="#595959" d="M 984.5,386.5 C 982.139,386.326 979.806,385.993 977.5,385.5C 977.5,384.5 977.5,383.5 977.5,382.5C 980.682,382.584 983.015,383.917 984.5,386.5 Z"/></g>
<g><path style="opacity:1" fill="#939393" d="M 317.5,387.5 C 321.165,387.502 324.165,388.835 326.5,391.5C 323.088,390.925 320.088,389.592 317.5,387.5 Z"/></g>
<g><path style="opacity:0.255" fill="#5a5a5a" d="M 924.5,383.5 C 926.312,385.713 926.645,388.047 925.5,390.5C 925.007,388.194 924.674,385.861 924.5,383.5 Z"/></g>
<g><path style="opacity:0.506" fill="#474747" d="M 973.5,386.5 C 976.548,386.494 977.048,387.494 975,389.5C 973.961,388.756 973.461,387.756 973.5,386.5 Z"/></g>
<g><path style="opacity:1" fill="#d2d2d2" d="M 266.5,387.5 C 264.883,388.038 263.216,388.371 261.5,388.5C 258.215,388.928 255.215,389.928 252.5,391.5C 251.127,391.657 249.793,391.49 248.5,391C 250.066,390.392 251.4,389.558 252.5,388.5C 254.421,387.637 256.421,386.971 258.5,386.5C 260.547,386.489 262.547,386.156 264.5,385.5C 265.713,385.747 266.38,386.414 266.5,387.5 Z"/></g>
<g><path style="opacity:0.961" fill="#848484" d="M 327.5,387.5 C 331.149,388.267 334.482,389.6 337.5,391.5C 334.624,391.073 331.791,390.406 329,389.5C 327.97,389.164 327.47,388.497 327.5,387.5 Z"/></g>
<g><path style="opacity:0.027" fill="#404040" d="M 261.5,388.5 C 258.916,390.472 255.916,391.472 252.5,391.5C 255.215,389.928 258.215,388.928 261.5,388.5 Z"/></g>
<g><path style="opacity:0.333" fill="#5d5d5d" d="M 901.5,388.5 C 903.167,389.5 904.5,390.833 905.5,392.5C 903.167,392.167 901.833,390.833 901.5,388.5 Z"/></g>
<g><path style="opacity:1" fill="#686868" d="M 954.5,392.5 C 952.901,392.232 951.568,392.566 950.5,393.5C 944.676,395.31 939.176,394.644 934,391.5C 932.699,391.639 931.866,392.305 931.5,393.5C 930.285,397.033 930.285,400.699 931.5,404.5C 930.035,403.594 929.035,402.261 928.5,400.5C 929.833,399.5 929.833,398.5 928.5,397.5C 930.095,388.961 934.095,387.461 940.5,393C 943.003,393.874 945.003,393.207 946.5,391C 945.272,390.221 944.272,389.221 943.5,388C 943.833,387.5 944.167,387 944.5,386.5C 946.982,387.897 949.648,388.731 952.5,389C 953.823,389.816 954.489,390.983 954.5,392.5 Z"/></g>
<g><path style="opacity:1" fill="#878787" d="M 252.5,388.5 C 251.4,389.558 250.066,390.392 248.5,391C 249.793,391.49 251.127,391.657 252.5,391.5C 248.509,393.606 244.176,394.939 239.5,395.5C 241.019,394.59 242.685,393.757 244.5,393C 243.207,392.51 241.873,392.343 240.5,392.5C 244.098,390.26 248.098,388.926 252.5,388.5 Z"/></g>
<g><path style="opacity:1" fill="#919191" d="M 327.5,391.5 C 330.491,391.166 332.824,392.166 334.5,394.5C 331.843,394.065 329.509,393.065 327.5,391.5 Z"/></g>
<g><path style="opacity:1" fill="#dddddd" d="M 284.5,380.5 C 292.521,380.442 300.521,380.776 308.5,381.5C 314.417,384.494 320.75,386.494 327.5,387.5C 327.47,388.497 327.97,389.164 329,389.5C 331.791,390.406 334.624,391.073 337.5,391.5C 338.492,391.328 339.158,391.662 339.5,392.5C 343.064,394.919 347.064,396.586 351.5,397.5C 354.912,398.042 357.912,399.375 360.5,401.5C 360.38,402.586 359.713,403.253 358.5,403.5C 355.325,401.909 351.991,400.909 348.5,400.5C 346.716,400.107 345.05,399.441 343.5,398.5C 341.824,396.166 339.491,395.166 336.5,395.5C 335.833,395.167 335.167,394.833 334.5,394.5C 332.824,392.166 330.491,391.166 327.5,391.5C 327.167,391.5 326.833,391.5 326.5,391.5C 324.165,388.835 321.165,387.502 317.5,387.5C 315.901,387.768 314.568,387.434 313.5,386.5C 310.829,384.882 307.829,384.215 304.5,384.5C 304.167,384.5 303.833,384.5 303.5,384.5C 296.066,382.908 288.4,382.075 280.5,382C 282.058,381.79 283.391,381.29 284.5,380.5 Z"/></g>
<g><path style="opacity:0.467" fill="#5a5a5a" d="M 965.5,389.5 C 967.912,389.694 968.912,391.027 968.5,393.5C 967.5,393.5 966.5,393.5 965.5,393.5C 965.5,392.167 965.5,390.833 965.5,389.5 Z"/></g>
<g><path style="opacity:0.267" fill="#474747" d="M 34.5,392.5 C 36.0269,392.427 37.0269,393.094 37.5,394.5C 35.9731,394.573 34.9731,393.906 34.5,392.5 Z"/></g>
<g><path style="opacity:0.478" fill="#5e5e5e" d="M 41.5,392.5 C 44.4848,393.326 47.1515,394.659 49.5,396.5C 46.2459,396.206 43.5792,394.873 41.5,392.5 Z"/></g>
<g><path style="opacity:1" fill="#f6f6f6" d="M 954.5,392.5 C 955.404,393.209 955.737,394.209 955.5,395.5C 955.162,397.854 954.662,400.187 954,402.5C 951.942,403.229 950.109,404.229 948.5,405.5C 943.5,405.5 938.5,405.5 933.5,405.5C 932.508,405.672 931.842,405.338 931.5,404.5C 930.285,400.699 930.285,397.033 931.5,393.5C 936.878,395.542 942.545,396.042 948.5,395C 949.416,394.722 950.082,394.222 950.5,393.5C 951.568,392.566 952.901,392.232 954.5,392.5 Z"/></g>
<g><path style="opacity:1" fill="#cccccc" d="M 950.5,393.5 C 950.082,394.222 949.416,394.722 948.5,395C 942.545,396.042 936.878,395.542 931.5,393.5C 931.866,392.305 932.699,391.639 934,391.5C 939.176,394.644 944.676,395.31 950.5,393.5 Z"/></g>
<g><path style="opacity:0.4" fill="#5d5d5d" d="M 339.5,392.5 C 343.936,393.414 347.936,395.081 351.5,397.5C 347.064,396.586 343.064,394.919 339.5,392.5 Z"/></g>
<g><path style="opacity:0.427" fill="#5a5a5a" d="M 1010.5,398.5 C 1009.4,399.601 1009.24,400.934 1010,402.5C 1010.99,403.171 1012.15,403.171 1013.5,402.5C 1012.69,404.273 1011.35,404.773 1009.5,404C 1007.02,402.295 1005.69,400.295 1005.5,398C 998.181,394.675 991.181,390.842 984.5,386.5C 985.496,386.586 986.329,386.252 987,385.5C 994.815,389.988 1002.65,394.321 1010.5,398.5 Z"/></g>
<g><path style="opacity:0.773" fill="#666666" d="M 336.5,395.5 C 339.491,395.166 341.824,396.166 343.5,398.5C 340.843,398.065 338.509,397.065 336.5,395.5 Z"/></g>
<g><path style="opacity:1" fill="#aeaeae" d="M 240.5,392.5 C 241.873,392.343 243.207,392.51 244.5,393C 242.685,393.757 241.019,394.59 239.5,395.5C 233.384,397.87 227.051,399.87 220.5,401.5C 219.448,401.649 218.448,401.483 217.5,401C 219.066,400.392 220.4,399.558 221.5,398.5C 227.487,395.747 233.821,393.747 240.5,392.5 Z"/></g>
<g><path style="opacity:0.412" fill="#646464" d="M 53.5,398.5 C 55.3797,398.229 56.713,398.896 57.5,400.5C 55.847,400.34 54.5137,399.674 53.5,398.5 Z"/></g>
<g><path style="opacity:1" fill="#9b9b9b" d="M 955.5,395.5 C 957.665,401.813 955.332,405.146 948.5,405.5C 950.109,404.229 951.942,403.229 954,402.5C 954.662,400.187 955.162,397.854 955.5,395.5 Z"/></g>
<g><path style="opacity:1" fill="#8a8a8a" d="M 49.5,400.5 C 53.3267,400.752 56.6601,402.085 59.5,404.5C 55.7029,404.128 52.3695,402.794 49.5,400.5 Z"/></g>
<g><path style="opacity:1" fill="#d8d8d8" d="M 1010.5,398.5 C 1011.49,398.328 1012.16,398.662 1012.5,399.5C 1013.11,400.391 1013.44,401.391 1013.5,402.5C 1012.15,403.171 1010.99,403.171 1010,402.5C 1009.24,400.934 1009.4,399.601 1010.5,398.5 Z"/></g>
<g><path style="opacity:1" fill="#b3b3b3" d="M 982.5,399.5 C 978.641,401.624 974.641,403.624 970.5,405.5C 972.721,403.307 974.054,400.64 974.5,397.5C 977.38,396.67 980.046,397.337 982.5,399.5 Z"/></g>
<g><path style="opacity:0.6" fill="#626262" d="M 1012.5,399.5 C 1015.71,399.987 1016.05,400.987 1013.5,402.5C 1013.44,401.391 1013.11,400.391 1012.5,399.5 Z"/></g>
<g><path style="opacity:0.745" fill="#747474" d="M 60.5,401.5 C 64.7843,402.261 68.7843,403.595 72.5,405.5C 67.9961,405.381 63.9961,404.048 60.5,401.5 Z"/></g>
<g><path style="opacity:0.133" fill="#4a4a4a" d="M 974.5,397.5 C 974.054,400.64 972.721,403.307 970.5,405.5C 968.738,405.643 967.071,405.309 965.5,404.5C 964.148,405.524 962.815,406.524 961.5,407.5C 962.626,403.034 965.293,401.701 969.5,403.5C 970.513,400.832 972.179,398.832 974.5,397.5 Z"/></g>
<g><path style="opacity:1" fill="#939393" d="M 221.5,398.5 C 220.4,399.558 219.066,400.392 217.5,401C 218.448,401.483 219.448,401.649 220.5,401.5C 215.513,403.938 210.179,405.605 204.5,406.5C 204.167,406.5 203.833,406.5 203.5,406.5C 200.673,405.632 197.673,405.632 194.5,406.5C 203.298,403.459 212.298,400.793 221.5,398.5 Z"/></g>
<g><path style="opacity:1" fill="#929292" d="M 348.5,400.5 C 351.991,400.909 355.325,401.909 358.5,403.5C 359.713,403.253 360.38,402.586 360.5,401.5C 364.533,402.025 368.2,403.358 371.5,405.5C 368.797,405.045 366.13,404.378 363.5,403.5C 362.833,403.667 362.167,403.833 361.5,404C 362.381,404.708 363.047,405.542 363.5,406.5C 358.105,405.262 353.105,403.262 348.5,400.5 Z"/></g>
<g><path style="opacity:1" fill="#ececec" d="M 982.5,399.5 C 983.167,399.5 983.5,399.833 983.5,400.5C 983.5,402.167 983.5,403.833 983.5,405.5C 982.659,407.379 982.325,409.379 982.5,411.5C 979.858,411.488 978.525,412.821 978.5,415.5C 978.158,416.338 977.492,416.672 976.5,416.5C 974.214,416.595 972.214,417.262 970.5,418.5C 968.565,417.85 966.565,417.517 964.5,417.5C 962.589,417.426 961.422,416.426 961,414.5C 960.297,412.071 960.463,409.738 961.5,407.5C 962.815,406.524 964.148,405.524 965.5,404.5C 967.071,405.309 968.738,405.643 970.5,405.5C 974.641,403.624 978.641,401.624 982.5,399.5 Z"/></g>
<g><path style="opacity:1" fill="#888888" d="M 59.5,404.5 C 62.4815,404.182 64.8148,405.182 66.5,407.5C 63.9369,406.912 61.6036,405.912 59.5,404.5 Z"/></g>
<g><path style="opacity:0.878" fill="#6c6c6c" d="M 933.5,405.5 C 938.5,405.5 943.5,405.5 948.5,405.5C 943.348,407.454 938.348,407.454 933.5,405.5 Z"/></g>
<g><path style="opacity:1" fill="#e8e8e8" d="M 203.5,406.5 C 201.214,406.595 199.214,407.262 197.5,408.5C 195.801,408.66 194.134,408.494 192.5,408C 193.416,407.722 194.082,407.222 194.5,406.5C 197.673,405.632 200.673,405.632 203.5,406.5 Z"/></g>
<g><path style="opacity:1" fill="#797979" d="M 363.5,406.5 C 367.327,406.752 370.66,408.085 373.5,410.5C 369.703,410.128 366.37,408.794 363.5,406.5 Z"/></g>
<g><path style="opacity:0.147" fill="#404040" d="M 983.5,400.5 C 985.157,403.089 985.491,405.756 984.5,408.5C 984.737,407.209 984.404,406.209 983.5,405.5C 983.5,403.833 983.5,402.167 983.5,400.5 Z"/></g>
<g><path style="opacity:0.933" fill="#6f6f6f" d="M 66.5,407.5 C 70.1621,407.723 73.4954,408.723 76.5,410.5C 72.8379,410.277 69.5046,409.277 66.5,407.5 Z"/></g>
<g><path style="opacity:1" fill="#929292" d="M 194.5,406.5 C 194.082,407.222 193.416,407.722 192.5,408C 194.134,408.494 195.801,408.66 197.5,408.5C 193.761,410.102 189.761,411.102 185.5,411.5C 185.918,410.778 186.584,410.278 187.5,410C 186.906,409.536 186.239,409.369 185.5,409.5C 185.5,409.167 185.5,408.833 185.5,408.5C 188.37,407.366 191.37,406.7 194.5,406.5 Z"/></g>
<g><path style="opacity:0.373" fill="#515151" d="M 203.5,406.5 C 203.833,406.5 204.167,406.5 204.5,406.5C 202.485,407.924 200.152,408.59 197.5,408.5C 199.214,407.262 201.214,406.595 203.5,406.5 Z"/></g>
<g><path style="opacity:0.827" fill="#7b7b7b" d="M 373.5,406.5 C 377.902,406.926 381.902,408.26 385.5,410.5C 381.085,410.139 377.085,408.806 373.5,406.5 Z"/></g>
<g><path style="opacity:0.694" fill="#5c5c5c" d="M 185.5,408.5 C 185.5,408.833 185.5,409.167 185.5,409.5C 184.167,409.5 182.833,409.5 181.5,409.5C 182.531,408.751 183.698,408.085 185,407.5C 185.399,407.728 185.565,408.062 185.5,408.5 Z"/></g>
<g><path style="opacity:0.855" fill="#717171" d="M 405.5,412.5 C 407.031,411.075 406.698,410.409 404.5,410.5C 407.102,408.858 409.769,407.192 412.5,405.5C 413.282,407.329 412.616,408.829 410.5,410C 408.922,411.094 407.255,411.928 405.5,412.5 Z"/></g>
<g><path style="opacity:0.812" fill="#626262" d="M 180.5,409.5 C 179.791,410.404 178.791,410.737 177.5,410.5C 178.172,409.733 179.005,409.066 180,408.5C 180.399,408.728 180.565,409.062 180.5,409.5 Z"/></g>
<g><path style="opacity:1" fill="#e7e7e7" d="M 371.5,405.5 C 372.492,405.328 373.158,405.662 373.5,406.5C 377.085,408.806 381.085,410.139 385.5,410.5C 386.5,410.5 387.5,410.5 388.5,410.5C 388.611,411.117 388.944,411.617 389.5,412C 391.5,412.167 393.5,412.333 395.5,412.5C 398.814,412.657 401.814,411.991 404.5,410.5C 406.698,410.409 407.031,411.075 405.5,412.5C 404.041,412.433 402.708,412.766 401.5,413.5C 393.048,413.902 384.715,413.235 376.5,411.5C 375.209,411.737 374.209,411.404 373.5,410.5C 370.66,408.085 367.327,406.752 363.5,406.5C 363.047,405.542 362.381,404.708 361.5,404C 362.167,403.833 362.833,403.667 363.5,403.5C 366.13,404.378 368.797,405.045 371.5,405.5 Z"/></g>
<g><path style="opacity:1" fill="#e6e6e6" d="M 53.5,398.5 C 54.5137,399.674 55.847,400.34 57.5,400.5C 58.791,400.263 59.791,400.596 60.5,401.5C 63.9961,404.048 67.9961,405.381 72.5,405.5C 73.8333,405.833 75.1667,406.167 76.5,406.5C 76.6107,407.117 76.944,407.617 77.5,408C 86.6268,410.925 95.9602,412.759 105.5,413.5C 109.119,414.244 112.785,414.577 116.5,414.5C 131.004,415.335 145.671,415.501 160.5,415C 139.475,417.068 118.475,416.902 97.5,414.5C 93.1004,412.896 88.4338,412.229 83.5,412.5C 80.8478,412.59 78.5145,411.924 76.5,410.5C 73.4954,408.723 70.1621,407.723 66.5,407.5C 64.8148,405.182 62.4815,404.182 59.5,404.5C 56.6601,402.085 53.3267,400.752 49.5,400.5C 49.3893,399.883 49.056,399.383 48.5,399C 50.1341,398.506 51.8008,398.34 53.5,398.5 Z"/></g>
<g><path style="opacity:1" fill="#898989" d="M 76.5,406.5 C 85.9399,409.521 95.6066,411.521 105.5,412.5C 105.5,412.833 105.5,413.167 105.5,413.5C 95.9602,412.759 86.6268,410.925 77.5,408C 76.944,407.617 76.6107,407.117 76.5,406.5 Z"/></g>
<g><path style="opacity:1" fill="#d4d4d4" d="M 180.5,409.5 C 180.833,409.5 181.167,409.5 181.5,409.5C 182.833,409.5 184.167,409.5 185.5,409.5C 186.239,409.369 186.906,409.536 187.5,410C 186.584,410.278 185.918,410.778 185.5,411.5C 184.081,412.451 182.415,412.784 180.5,412.5C 178.473,412.662 176.473,412.495 174.5,412C 175.416,411.722 176.082,411.222 176.5,410.5C 176.833,410.5 177.167,410.5 177.5,410.5C 178.791,410.737 179.791,410.404 180.5,409.5 Z"/></g>
<g><path style="opacity:1" fill="#919191" d="M 176.5,410.5 C 176.082,411.222 175.416,411.722 174.5,412C 176.473,412.495 178.473,412.662 180.5,412.5C 177.781,413.913 174.781,414.58 171.5,414.5C 171.918,413.778 172.584,413.278 173.5,413C 171.19,412.503 168.857,412.337 166.5,412.5C 169.627,411.419 172.96,410.753 176.5,410.5 Z"/></g>
<g><path style="opacity:0.827" fill="#a1a1a1" d="M 388.5,410.5 C 393.811,411.704 399.144,411.704 404.5,410.5C 401.814,411.991 398.814,412.657 395.5,412.5C 393.5,412.333 391.5,412.167 389.5,412C 388.944,411.617 388.611,411.117 388.5,410.5 Z"/></g>
<g><path style="opacity:1" fill="#a9a9a9" d="M 983.5,405.5 C 984.404,406.209 984.737,407.209 984.5,408.5C 983.932,412.067 981.932,414.401 978.5,415.5C 978.525,412.821 979.858,411.488 982.5,411.5C 982.325,409.379 982.659,407.379 983.5,405.5 Z"/></g>
<g><path style="opacity:1" fill="#9d9d9d" d="M 83.5,412.5 C 88.4338,412.229 93.1004,412.896 97.5,414.5C 95.8333,414.5 94.1667,414.5 92.5,414.5C 89.2727,414.324 86.2727,413.657 83.5,412.5 Z"/></g>
<g><path style="opacity:0.183" fill="#474747" d="M 105.5,413.5 C 105.5,413.167 105.5,412.833 105.5,412.5C 114.666,412.938 123.666,413.605 132.5,414.5C 127.167,414.5 121.833,414.5 116.5,414.5C 112.785,414.577 109.119,414.244 105.5,413.5 Z"/></g>
<g><path style="opacity:1" fill="#d5d5d5" d="M 164.5,412.5 C 165.167,412.5 165.833,412.5 166.5,412.5C 168.857,412.337 171.19,412.503 173.5,413C 172.584,413.278 171.918,413.778 171.5,414.5C 171.167,414.5 170.833,414.5 170.5,414.5C 167.482,414.665 164.482,414.498 161.5,414C 162.737,413.768 163.737,413.268 164.5,412.5 Z"/></g>
<g><path style="opacity:1" fill="#8c8c8c" d="M 376.5,411.5 C 384.715,413.235 393.048,413.902 401.5,413.5C 401.5,413.833 401.5,414.167 401.5,414.5C 392.722,416.393 384.388,415.393 376.5,411.5 Z"/></g>
<g><path style="opacity:0.055" fill="#4b4b4b" d="M 405.5,412.5 C 404.486,413.674 403.153,414.34 401.5,414.5C 401.5,414.167 401.5,413.833 401.5,413.5C 402.708,412.766 404.041,412.433 405.5,412.5 Z"/></g>
<g><path style="opacity:0.733" fill="#787878" d="M 164.5,412.5 C 163.737,413.268 162.737,413.768 161.5,414C 164.482,414.498 167.482,414.665 170.5,414.5C 165.398,415.918 160.064,416.751 154.5,417C 139.833,417.667 125.167,417.667 110.5,417C 104.294,416.618 98.2938,415.785 92.5,414.5C 94.1667,414.5 95.8333,414.5 97.5,414.5C 118.475,416.902 139.475,417.068 160.5,415C 145.671,415.501 131.004,415.335 116.5,414.5C 121.833,414.5 127.167,414.5 132.5,414.5C 143.133,413.689 153.8,413.023 164.5,412.5 Z"/></g>
<g><path style="opacity:0.573" fill="#777777" d="M 976.5,416.5 C 974.898,418.074 972.898,418.741 970.5,418.5C 972.214,417.262 974.214,416.595 976.5,416.5 Z"/></g>
<g><path style="opacity:1" fill="#818181" d="M 964.5,417.5 C 966.565,417.517 968.565,417.85 970.5,418.5C 968.402,419.484 966.402,419.151 964.5,417.5 Z"/></g>
</svg>
